<svg width="170" height="80" viewBox="0 0 170 80" fill="none" xmlns="http://www.w3.org/2000/svg">
<path d="M11.5345 2.26416L2.41699 62.5963H12.0596L14.5896 45.5135L14.6374 45.0616L14.9238 42.9827L14.9714 45.8299L15.0193 46.7337L15.8308 62.5963H25.4257L22.8001 40.4971L31.2972 21.2903H22.132L16.4037 35.9779L16.1649 36.5202L15.5443 38.5087L15.8785 36.3394L15.974 35.8423L20.8907 2.26416H11.5345ZM65.4283 21.1999L52.1577 62.5059H61.3707L63.471 54.4617H67.3377L66.383 62.5059H75.5005L77.9827 21.1999H65.4283ZM34.1614 21.2903L27.5737 62.5963H35.9752L39.0303 43.6606L39.4122 40.9942L39.3645 43.0731L39.4122 43.5702L40.3192 62.5963H49.4845L56.0721 21.2903H48.2434L45.3792 38.3731L44.9495 40.9942L44.9973 38.9154L44.9495 38.4183L44.329 21.2903H34.1614ZM94.3085 21.2903L84.7136 21.3355C82.6113 33.7417 81.5955 41.645 79.5581 52.0664C79.5065 52.3611 79.4359 52.672 79.3671 53.0607C79.2297 53.8615 79.1877 53.9248 79.0331 55.0944C78.8974 56.1338 78.8496 56.9111 79.0331 57.9415C79.2086 58.9321 79.3462 59.4979 79.8922 60.3367C80.3639 61.0471 80.7534 61.4195 81.4675 61.9184C82.2065 62.4354 82.7354 62.6307 83.6157 62.9579C84.5093 63.2905 86.0596 63.464 87.4346 63.5454C89.2562 63.6556 91.1007 63.587 92.7332 63.3646C94.5377 63.1206 95.983 62.6723 97.0771 61.9636C98.2438 61.2116 99.2653 60.3367 99.8459 59.1617C100.27 58.3085 100.615 57.2979 100.848 55.953C101.339 53.1113 100.852 55.9657 101.326 53.1059L106.624 21.3355H97.1727L91.683 53.9193C91.683 53.9193 91.6315 54.534 91.5397 54.9136C91.4386 55.3492 91.4519 55.6584 91.2056 56.0434C91.0567 56.2676 90.9631 56.3923 90.7283 56.5405C90.4629 56.705 90.2815 56.7665 89.9645 56.7665C89.6075 56.7701 89.3649 56.6309 89.1053 56.4049C88.8265 56.1609 88.7463 55.944 88.6756 55.5915C88.607 55.2715 88.6756 54.778 88.6756 54.778L88.8665 53.829L94.3085 21.2903ZM110.443 21.2903L101.326 77.7359H111.064L116.935 42.9375H122.377L123.475 36.0683H117.89L119.131 27.8432H124.859L125.814 21.2903H110.443ZM70.8702 25.9451L70.3928 29.1086L70.2497 29.9221L68.197 47.5472H65.2851L69.9154 29.7865L70.1064 29.0182L70.8702 25.9451Z" fill="#00ADEF"/>
<path d="M145.624 44.6548C144.306 44.6548 143.063 45.8117 142.855 47.1856C142.638 48.6064 143.568 49.7164 144.908 49.7164C146.271 49.7164 147.511 48.5396 147.724 47.1404C147.936 45.7195 146.964 44.6548 145.624 44.6548ZM136.459 45.5586C131.758 45.5586 129.547 50.1285 128.916 54.2808C128.273 58.5199 129.153 62.8674 133.881 62.8674C138.899 62.8674 140.463 57.7317 141.089 53.6029L141.137 52.8798H135.122L134.597 56.4049H136.172C136.046 57.3828 135.462 58.8001 134.311 58.8001C132.632 58.8001 133.19 55.8843 133.308 54.6876C133.499 53.424 133.883 49.5808 135.886 49.5808C136.65 49.5808 136.948 50.6329 136.888 51.2981L141.328 49.6712C140.757 47.2543 139.052 45.5586 136.459 45.5586ZM154.646 50.6202C153.619 50.7845 152.821 51.5266 152.259 52.5183L152.212 52.4731L152.593 50.8462H148.393L145.815 67.7934H150.016L150.684 63.1838C150.793 62.4498 150.856 61.7467 150.923 61.0145L150.97 60.9693C151.398 62.0521 152.078 62.8222 153.357 62.8222C156.227 62.8222 157.443 59.0297 157.797 56.7212C158.152 54.3712 157.928 50.6202 155.076 50.6202C154.919 50.6202 154.793 50.5968 154.646 50.6202ZM164.289 50.6202C161.675 50.6202 159.549 52.1351 159.181 54.552C158.877 56.5495 160.067 57.4353 161.616 58.0318C162.297 58.2993 162.582 58.5615 162.522 58.9809C162.456 59.402 161.976 59.5684 161.616 59.5684C160.848 59.5684 160.159 58.9031 159.754 58.3482L157.701 61.602C158.904 62.3595 160.034 62.8222 161.568 62.8222C163.888 62.8222 166.273 61.3508 166.675 58.7097C166.964 56.8008 165.898 55.9638 164.48 55.3654C164.06 55.1901 163.29 54.881 163.382 54.2808C163.439 53.9048 163.802 53.6933 164.098 53.6933C164.802 53.6933 165.255 54.2645 165.673 54.7327L167.582 51.5693C166.693 50.9962 165.417 50.6202 164.289 50.6202ZM142.617 50.8462L140.85 62.5511H145.004L146.77 50.8462H142.617ZM152.88 54.1904C153.711 54.1904 153.674 55.6547 153.548 56.4953C153.42 57.3395 153.054 59.1616 152.116 59.1616C151.31 59.1616 151.421 57.6974 151.591 56.5856C151.74 55.5878 152.074 54.1904 152.88 54.1904Z" fill="#858B8F"/>
</svg>
