<svg width="110" height="36" viewBox="0 0 110 36" fill="none" xmlns="http://www.w3.org/2000/svg">
<g clip-path="url(#clip0_7994_3635)">
<path fill-rule="evenodd" clip-rule="evenodd" d="M36.2507 8.61772C34.5735 6.09476 32.241 3.98175 29.4723 2.47964C26.5675 0.904106 23.1783 0 19.5565 0C15.9348 0 12.5456 0.903906 9.64098 2.47964C6.87202 3.98165 4.53975 6.09476 2.8623 8.61762C5.90885 9.58775 8.32677 11.7793 9.44155 14.5431C9.98812 13.1883 10.8463 11.9731 11.9364 10.9717C13.8886 9.17811 16.5826 8.06903 19.5565 8.06903C22.5315 8.06903 25.2264 9.17881 27.1785 10.9733C28.2674 11.9744 29.1251 13.1887 29.6713 14.5423C30.7886 11.7699 33.209 9.58835 36.2507 8.61772Z" fill="#B1B3B3"/>
<path fill-rule="evenodd" clip-rule="evenodd" d="M28.9978 22.8097C28.507 23.6249 27.8954 24.3694 27.1855 25.023C25.2329 26.8197 22.5355 27.931 19.5567 27.931C16.5772 27.931 13.8797 26.8194 11.9273 25.0222C9.97467 23.2251 8.76696 20.7423 8.76696 18.0002C8.76696 14.2083 6.10798 10.8718 2.18891 9.71436C1.51789 10.9031 0.986968 12.1678 0.616243 13.4902C0.214001 14.925 0 16.4362 0 18.0003C0 22.9707 2.18902 27.4709 5.72802 30.7282C9.26702 33.9854 14.1562 36.0002 19.5567 36.0002C22.1173 36.0002 24.5452 35.0597 26.333 33.3712C27.9909 31.8055 29.0104 29.6682 29.0004 27.3129L28.9977 22.8098L28.9978 22.8097Z" fill="#003D64"/>
<path fill-rule="evenodd" clip-rule="evenodd" d="M39.1132 18.0002C39.1132 16.4361 38.8991 14.9249 38.4968 13.4901C38.1266 12.1679 37.5956 10.903 36.9242 9.71436C33.0213 10.8559 30.3533 14.2057 30.3437 17.9775V27.3103C30.3552 30.1691 29.0214 32.8822 26.6873 34.7669C29.2598 33.8393 31.5674 32.4246 33.4754 30.6459C36.9613 27.396 39.1131 22.9301 39.1131 18.0002H39.1132Z" fill="#D52023"/>
<path fill-rule="evenodd" clip-rule="evenodd" d="M55.8253 28.0023C58.3113 28.0023 60.3534 27.4577 61.9221 26.3407C63.4907 25.2239 64.2897 23.7529 64.2897 21.8734C64.2897 20.239 63.7272 18.9586 62.6027 18.0598C61.478 17.1609 59.9096 16.3981 57.9265 15.7989C57.0683 15.5537 55.7067 15.2268 55.0855 15.0362L54.1384 14.7366C53.5169 14.4915 53.28 14.219 53.28 13.8648C53.28 13.0205 54.1975 12.6118 56.003 12.6118C57.1868 12.6118 58.4001 12.8024 59.6728 13.1566C60.9454 13.5107 62.0403 13.9466 62.9578 14.4642V9.75157C60.7972 8.68921 58.4592 8.17163 55.9435 8.17163C50.9714 8.17163 47.8045 10.2145 47.8045 13.8922C47.8045 15.0089 48.1596 16.0169 48.5446 16.6979C48.9885 17.3788 49.9652 18.0326 50.5571 18.4412C50.8827 18.6319 51.3266 18.8226 51.9185 19.0405L53.2798 19.5308L54.7893 19.9394L56.6538 20.457C57.0089 20.5659 57.7488 20.7567 57.9856 20.9474C58.459 21.247 58.7847 21.492 58.7847 22.0641C58.7847 23.072 57.7193 23.5623 55.6178 23.5623C54.286 23.5623 52.8656 23.3172 51.356 22.7997C49.8468 22.282 48.6628 21.6828 47.8044 20.9474V25.9596C49.9651 27.3216 52.6287 28.0024 55.8251 28.0024L55.8253 28.0023Z" fill="#003D64"/>
<path fill-rule="evenodd" clip-rule="evenodd" d="M102.601 27.6263C104.821 27.6263 106.626 27.136 107.958 26.1281C109.319 25.1202 110 23.7855 110 22.1511C110 20.762 109.586 19.645 108.787 18.7461C107.988 17.8472 107.07 17.3023 106.064 17.0844C107.336 16.5398 108.491 15.2321 108.491 13.3798C108.491 10.2472 105.827 8.55835 102.039 8.55835H91.947V27.6263H102.601H102.601ZM97.2738 19.4816H101.565C103.134 19.4816 104.17 20.2444 104.17 21.5245C104.17 22.8049 103.193 23.5403 101.565 23.5403H97.2738V19.4816ZM97.2738 12.5355H101.24C102.542 12.5355 103.371 13.162 103.371 14.2244C103.371 15.2322 102.542 15.8587 101.24 15.8587H97.2738V12.5355Z" fill="#003D64"/>
<path fill-rule="evenodd" clip-rule="evenodd" d="M84.3192 32.5509C85.5402 32.5509 86.6423 32.3316 87.6549 31.9205V27.8357C86.9105 28.2195 86.0763 28.4114 85.1829 28.4114C84.0213 28.4114 83.0683 28.0277 82.3534 27.2327C84.2892 26.4376 85.8085 25.2041 86.9403 23.5865C88.0719 21.9692 88.638 20.1598 88.638 18.1586C88.638 15.3899 87.5953 13.0323 85.5105 11.0858C83.4257 9.13936 80.8046 8.17993 77.6474 8.17993C74.4903 8.17993 71.8693 9.13946 69.7844 11.0858C67.6995 13.0323 66.6567 15.3898 66.6567 18.1586C66.6567 20.7629 67.5802 23.0383 69.4567 24.9298C71.3332 26.8213 73.7158 27.8632 76.605 28.0825C79.4942 31.3722 81.8173 32.5509 84.3192 32.5509V32.5509ZM73.7157 22.0514C72.6733 21.0371 72.1668 19.7213 72.1668 18.1587C72.1668 16.5961 72.6733 15.2802 73.7157 14.266C74.7582 13.2516 76.0688 12.731 77.6473 12.731C79.2259 12.731 80.5066 13.2517 81.5491 14.266C82.5917 15.2803 83.1277 16.5961 83.1277 18.1587C83.1277 19.7213 82.5917 21.0372 81.5491 22.0514C80.5065 23.0658 79.2258 23.5865 77.6473 23.5865C76.0687 23.5865 74.7581 23.0657 73.7157 22.0514Z" fill="#003D64"/>
</g>
<defs>
<clipPath id="clip0_7994_3635">
<rect width="110" height="36" fill="white"/>
</clipPath>
</defs>
</svg>
