<svg width="24" height="12" viewBox="0 0 24 12" fill="none" xmlns="http://www.w3.org/2000/svg">
<path d="M17.7891 0.230815C17.3991 0.215815 17.0372 0.43894 16.8779 0.795189C16.7166 1.15144 16.786 1.56769 17.056 1.85269L20.0054 5.04019H1.44098C1.09411 5.03456 0.773482 5.21644 0.599107 5.51644C0.422856 5.81456 0.422856 6.18581 0.599107 6.48394C0.773482 6.78394 1.09411 6.96581 1.44098 6.96019H20.0054L17.056 10.1477C16.816 10.3989 16.7316 10.7589 16.8329 11.0908C16.9341 11.4227 17.206 11.6739 17.5435 11.7489C17.8829 11.8239 18.2354 11.7096 18.466 11.4527L23.5079 6.00019L18.466 0.547689C18.2935 0.35644 18.0479 0.240189 17.7891 0.230815Z" fill="#1D3448"/>
</svg>
