<svg width="42" height="39" viewBox="0 0 42 39" fill="none" xmlns="http://www.w3.org/2000/svg">
<path d="M5.6 9.10003C3.93569 9.10003 2.47448 9.94901 1.50937 11.144C0.54427 12.3389 0 13.9007 0 15.6C0 17.2993 0.54427 18.8611 1.50937 20.0561C2.47448 21.251 3.93569 22.1 5.6 22.1H15.4V36.4L19.6 32.5L23.8 36.4V22.1H26.6V29.9L32.2 35.1V29.9H37.8L29.4 22.1H36.4C36.465 22.1 36.5298 22.0957 36.5941 22.0873C38.1769 22.0237 39.5636 21.2039 40.4906 20.0561C41.4558 18.8611 42 17.2994 42 15.6C42 13.9006 41.4558 12.3389 40.4906 11.144C39.5721 10.0068 38.2023 9.19226 36.6379 9.11526C36.5592 9.10391 36.4796 9.09882 36.4 9.10003H5.6ZM5.6 11.7H12.3484C11.6375 12.7899 11.2 14.1306 11.2 15.6C11.2 17.0694 11.6375 18.4101 12.3484 19.5H5.6C4.94451 19.5 4.30377 19.1842 3.74883 18.4971C3.19388 17.81 2.8 16.7724 2.8 15.6C2.8 14.4276 3.19388 13.3901 3.74883 12.703C4.30377 12.0158 4.94451 11.7 5.6 11.7ZM20.7484 11.7H31.9375C31.2181 12.8089 30.8 14.1462 30.8 15.6C30.8 17.0538 31.2181 18.3912 31.9375 19.5H26.6H20.7484C20.0375 18.4101 19.6 17.0694 19.6 15.6C19.6 14.1306 20.0375 12.7899 20.7484 11.7ZM36.4 11.7C37.0554 11.7 37.6962 12.0159 38.2512 12.703C38.8061 13.3901 39.2 14.4276 39.2 15.6C39.2 16.7725 38.8061 17.81 38.2512 18.4971C37.6962 19.1842 37.0554 19.5 36.4 19.5C35.7446 19.5 35.1038 19.1842 34.5488 18.4971C33.9939 17.81 33.6 16.7725 33.6 15.6C33.6 14.4276 33.9939 13.3901 34.5488 12.703C35.1038 12.0159 35.7446 11.7 36.4 11.7Z" fill="black"/>
</svg>
