<svg width="60" height="60" viewBox="0 0 60 60" fill="none" xmlns="http://www.w3.org/2000/svg">
<path d="M45.625 5H39.375C37.3037 5 35.625 6.67875 35.625 8.75V20C35.625 20.69 35.065 21.25 34.375 21.25C33.685 21.25 33.125 20.69 33.125 20V8.75C33.125 6.67875 31.4462 5 29.375 5H23.125C21.3987 5 20 6.39875 20 8.125V20.625C20 22.3513 21.3987 23.75 23.125 23.75H30.9225C31.3762 25.1975 32.7137 26.25 34.3112 26.25C35.9087 26.25 37.2462 25.1975 37.7 23.75H45.625C47.3512 23.75 48.75 22.3513 48.75 20.625V8.125C48.75 6.39875 47.3512 5 45.625 5ZM54.265 26.2562C52.9825 26.2562 51.575 27.1 48.5825 28.6525C46.1037 29.94 43.8112 31.1638 42.355 32.0563C42.4812 32.6038 42.5562 33.1712 42.5562 33.7562C42.5562 37.8925 39.1912 41.2563 35.0562 41.2563H25.6812C24.6462 41.2563 23.8062 40.4175 23.8062 39.3812C23.8062 38.345 24.6462 37.5062 25.6812 37.5062H35.0562C37.1237 37.5062 38.8062 35.8237 38.8062 33.7562C38.8062 32.635 38.3012 31.6388 37.5187 30.95C36.63 30.3625 35.575 30.0062 34.4312 30.0062H28.94H28.1812C28.145 30.0062 28.1112 29.9975 28.075 29.995C24.78 29.9438 23.1975 29.6037 21.8062 29.2975C20.5412 29.0187 19.3462 28.7562 17.34 28.7562C8.17495 28.7562 2.94245 40.0075 2.72495 40.4862C2.44245 41.1062 2.5187 41.8288 2.92245 42.3763L11.6725 54.2438C12.0287 54.7275 12.5912 55 13.1787 55C13.2975 55 13.415 54.9887 13.5337 54.9662C14.2412 54.8312 14.8137 54.2963 14.9975 53.6C15.0962 53.2313 16.0512 50.0063 19.4325 50.0063C21.8725 50.0063 24.3962 50.3212 26.8375 50.625C29.3237 50.9362 31.8962 51.2563 34.4325 51.2563C37.8862 51.2563 40.3725 48.6075 47.5575 41.2563C56.685 31.9175 57.5575 31.1012 57.5575 29.25C57.5575 27.6475 56.1512 26.2562 54.265 26.2562Z" fill="#EF7F1A"/>
</svg>
