<svg width="48" height="48" viewBox="0 0 48 48" fill="none" xmlns="http://www.w3.org/2000/svg">
<path d="M36.5 4H31.5C29.843 4 28.5 5.343 28.5 7V16C28.5 16.552 28.052 17 27.5 17C26.948 17 26.5 16.552 26.5 16V7C26.5 5.343 25.157 4 23.5 4H18.5C17.119 4 16 5.119 16 6.5V16.5C16 17.881 17.119 19 18.5 19H24.738C25.101 20.158 26.171 21 27.449 21C28.727 21 29.797 20.158 30.16 19H36.5C37.881 19 39 17.881 39 16.5V6.5C39 5.119 37.881 4 36.5 4ZM43.412 21.005C42.386 21.005 41.26 21.68 38.866 22.922C36.883 23.952 35.049 24.931 33.884 25.645C33.985 26.083 34.045 26.537 34.045 27.005C34.045 30.314 31.353 33.005 28.045 33.005H20.545C19.717 33.005 19.045 32.334 19.045 31.505C19.045 30.676 19.717 30.005 20.545 30.005H28.045C29.699 30.005 31.045 28.659 31.045 27.005C31.045 26.108 30.641 25.311 30.015 24.76C29.304 24.29 28.46 24.005 27.545 24.005H23.152H22.545C22.516 24.005 22.489 23.998 22.46 23.996C19.824 23.955 18.558 23.683 17.445 23.438C16.433 23.215 15.477 23.005 13.872 23.005C6.53996 23.005 2.35396 32.006 2.17996 32.389C1.95396 32.885 2.01496 33.463 2.33796 33.901L9.33796 43.395C9.62296 43.782 10.073 44 10.543 44C10.638 44 10.732 43.991 10.827 43.973C11.393 43.865 11.851 43.437 11.998 42.88C12.077 42.585 12.841 40.005 15.546 40.005C17.498 40.005 19.517 40.257 21.47 40.5C23.459 40.749 25.517 41.005 27.546 41.005C30.309 41.005 32.298 38.886 38.046 33.005C45.348 25.534 46.046 24.881 46.046 23.4C46.046 22.118 44.921 21.005 43.412 21.005Z" fill="#AEB0B1"/>
</svg>
