<svg width="55" height="50" viewBox="0 0 55 50" fill="none" xmlns="http://www.w3.org/2000/svg">
<path d="M12.8333 5C9.79542 5 7.33325 7.23833 7.33325 10V31.6667C7.3333 31.8863 7.38109 32.1038 7.47388 32.3065C7.56667 32.5093 7.70263 32.6934 7.87394 32.8483C8.5208 34.9549 10.3222 36.6667 12.8333 36.6667H16.4999V33.3333H12.8333C11.7974 33.3333 10.9999 32.6084 10.9999 31.6667C10.9999 30.9045 11.5335 30.3064 12.2818 30.0977L16.4999 30.4167V16.6667C16.4999 12.985 19.7834 10 23.8333 10H36.6666V8.33333C36.6666 6.49167 35.0258 5 32.9999 5H12.8333ZM25.6666 13.3333C22.6288 13.3333 20.1666 15.5717 20.1666 18.3333V40C20.1666 40.2196 20.2144 40.4371 20.3072 40.6399C20.4 40.8427 20.536 41.0268 20.7073 41.1816C21.3541 43.2883 23.1556 45 25.6666 45H47.6666C47.9095 45.0031 48.1507 44.9623 48.3762 44.88C48.6016 44.7976 48.8068 44.6753 48.9798 44.5203C49.1528 44.3652 49.2902 44.1804 49.384 43.9766C49.4777 43.7729 49.526 43.5542 49.526 43.3333C49.526 43.1125 49.4777 42.8938 49.384 42.69C49.2902 42.4863 49.1528 42.3015 48.9798 42.1464C48.8068 41.9913 48.6016 41.8691 48.3762 41.7867C48.1507 41.7043 47.9095 41.6635 47.6666 41.6667H25.6666C24.6307 41.6667 23.8333 40.9417 23.8333 40C23.8333 39.0583 24.6307 38.3333 25.6666 38.3333H45.8333C47.8591 38.3333 49.4999 36.8417 49.4999 35V16.6667C49.4999 14.825 47.8591 13.3333 45.8333 13.3333H25.6666ZM29.3333 20H40.3333C41.3453 20 42.1666 20.7467 42.1666 21.6667C42.1666 22.5867 41.3453 23.3333 40.3333 23.3333H29.3333C28.3213 23.3333 27.4999 22.5867 27.4999 21.6667C27.4999 20.7467 28.3213 20 29.3333 20Z" fill="black"/>
</svg>
