<svg width="65" height="60" viewBox="0 0 65 60" fill="none" xmlns="http://www.w3.org/2000/svg">
<path d="M32.4999 7.51465C31.0994 7.51465 29.6997 7.79449 28.4004 8.35449L3.87992 18.9233C3.16492 19.2308 2.70825 19.8951 2.70825 20.6226C2.70825 21.3501 3.16492 22.0143 3.87992 22.3218L28.4004 32.8906C29.7234 33.4606 31.1105 33.7451 32.4999 33.7451C33.8893 33.7451 35.2778 33.4606 36.5994 32.8906L46.0416 28.8208V44.3799C45.4753 44.774 45.0575 45.3224 44.847 45.9475C44.6365 46.5726 44.644 47.243 44.8685 47.864C45.0929 48.485 45.5229 49.0252 46.0979 49.4085C46.6728 49.7917 47.3636 49.9986 48.0728 50C48.7827 49.9993 49.4744 49.7927 50.0501 49.4093C50.6257 49.0259 51.0563 48.4852 51.2809 47.8636C51.5054 47.242 51.5126 46.571 51.3015 45.9454C51.0903 45.3198 50.6714 44.7713 50.1041 44.3774V27.2949C50.1825 26.827 50.0663 26.3491 49.7788 25.957C49.7472 25.9134 49.7137 25.8711 49.6783 25.8301C49.4145 25.5142 49.0486 25.2841 48.6335 25.1733C48.6318 25.1725 48.63 25.1717 48.6283 25.1709L35.5706 19.5825C35.3443 19.3522 35.2083 19.0571 35.2083 18.7476C35.2083 18.5713 35.2499 18.3938 35.3352 18.2251C35.648 17.5976 36.4566 17.3272 37.1337 17.6172L51.2652 23.6646C52.209 24.0683 52.8124 24.9421 52.8124 25.9033L61.1199 22.3218C61.147 22.3105 61.1551 22.2988 61.1781 22.2876C61.5681 22.1038 61.9021 21.811 62.1012 21.416C62.5751 20.4773 62.1355 19.3608 61.1199 18.9233L36.5994 8.35449C35.3001 7.79449 33.9005 7.51465 32.4999 7.51465ZM13.5416 30.4956V43.1616C13.5416 45.8479 15.2261 48.2958 17.8315 49.3945C22.7864 51.4833 27.5516 52.5 32.3941 52.5H32.4999H32.5079C36.1885 52.4875 39.9796 51.8789 43.648 50.7227C42.6202 49.7164 41.9791 48.3675 41.9791 46.875C41.9791 45.5463 42.4991 44.3414 43.3333 43.3789V33.9966L37.7447 36.4038C36.0682 37.1276 34.3037 37.4951 32.4999 37.4951C30.6962 37.4951 28.933 37.1276 27.2552 36.4038L13.5416 30.4956Z" fill="#EF7F1A"/>
</svg>
