<svg width="55" height="50" viewBox="0 0 55 50" fill="none" xmlns="http://www.w3.org/2000/svg">
<path d="M7.33341 8.33331C5.30758 8.33331 3.66675 9.82498 3.66675 11.6666V38.3333C3.66675 40.175 5.30758 41.6666 7.33341 41.6666H22.0001C24.0259 41.6666 25.6667 43.1583 25.6667 45V11.6666C25.6667 9.82498 24.0259 8.33331 22.0001 8.33331H7.33341ZM33.0001 8.33331C30.9742 8.33331 29.3334 9.82498 29.3334 11.6666V45C29.3334 43.1583 30.9742 41.6666 33.0001 41.6666H47.6667C49.6926 41.6666 51.3334 40.175 51.3334 38.3333V11.6666C51.3334 9.82498 49.6926 8.33331 47.6667 8.33331H33.0001ZM9.16675 13.3333H12.8334C13.8454 13.3333 14.6667 14.08 14.6667 15C14.6667 15.92 13.8454 16.6666 12.8334 16.6666H9.16675C8.15475 16.6666 7.33341 15.92 7.33341 15C7.33341 14.08 8.15475 13.3333 9.16675 13.3333ZM20.1667 13.3333C21.1787 13.3333 22.0001 14.08 22.0001 15C22.0001 15.92 21.1787 16.6666 20.1667 16.6666C19.1547 16.6666 18.3334 15.92 18.3334 15C18.3334 14.08 19.1547 13.3333 20.1667 13.3333ZM34.8334 13.3333H38.5001C39.5121 13.3333 40.3334 14.08 40.3334 15C40.3334 15.92 39.5121 16.6666 38.5001 16.6666H34.8334C33.8214 16.6666 33.0001 15.92 33.0001 15C33.0001 14.08 33.8214 13.3333 34.8334 13.3333ZM45.8334 13.3333C46.8454 13.3333 47.6667 14.08 47.6667 15C47.6667 15.92 46.8454 16.6666 45.8334 16.6666C44.8214 16.6666 44.0001 15.92 44.0001 15C44.0001 14.08 44.8214 13.3333 45.8334 13.3333ZM9.16675 20H12.8334C13.8454 20 14.6667 20.7466 14.6667 21.6666C14.6667 22.5866 13.8454 23.3333 12.8334 23.3333H9.16675C8.15475 23.3333 7.33341 22.5866 7.33341 21.6666C7.33341 20.7466 8.15475 20 9.16675 20ZM20.1667 20C21.1787 20 22.0001 20.7466 22.0001 21.6666C22.0001 22.5866 21.1787 23.3333 20.1667 23.3333C19.1547 23.3333 18.3334 22.5866 18.3334 21.6666C18.3334 20.7466 19.1547 20 20.1667 20ZM34.8334 20H38.5001C39.5121 20 40.3334 20.7466 40.3334 21.6666C40.3334 22.5866 39.5121 23.3333 38.5001 23.3333H34.8334C33.8214 23.3333 33.0001 22.5866 33.0001 21.6666C33.0001 20.7466 33.8214 20 34.8334 20ZM45.8334 20C46.8454 20 47.6667 20.7466 47.6667 21.6666C47.6667 22.5866 46.8454 23.3333 45.8334 23.3333C44.8214 23.3333 44.0001 22.5866 44.0001 21.6666C44.0001 20.7466 44.8214 20 45.8334 20ZM9.16675 26.6666H11.0001C12.0121 26.6666 12.8334 27.4133 12.8334 28.3333C12.8334 29.2533 12.0121 30 11.0001 30H9.16675C8.15475 30 7.33341 29.2533 7.33341 28.3333C7.33341 27.4133 8.15475 26.6666 9.16675 26.6666ZM20.1667 26.6666C21.1787 26.6666 22.0001 27.4133 22.0001 28.3333C22.0001 29.2533 21.1787 30 20.1667 30C19.1547 30 18.3334 29.2533 18.3334 28.3333C18.3334 27.4133 19.1547 26.6666 20.1667 26.6666ZM34.8334 26.6666H36.6667C37.6787 26.6666 38.5001 27.4133 38.5001 28.3333C38.5001 29.2533 37.6787 30 36.6667 30H34.8334C33.8214 30 33.0001 29.2533 33.0001 28.3333C33.0001 27.4133 33.8214 26.6666 34.8334 26.6666ZM45.8334 26.6666C46.8454 26.6666 47.6667 27.4133 47.6667 28.3333C47.6667 29.2533 46.8454 30 45.8334 30C44.8214 30 44.0001 29.2533 44.0001 28.3333C44.0001 27.4133 44.8214 26.6666 45.8334 26.6666ZM9.16675 33.3333H12.8334C13.8454 33.3333 14.6667 34.08 14.6667 35C14.6667 35.92 13.8454 36.6666 12.8334 36.6666H9.16675C8.15475 36.6666 7.33341 35.92 7.33341 35C7.33341 34.08 8.15475 33.3333 9.16675 33.3333ZM20.1667 33.3333C21.1787 33.3333 22.0001 34.08 22.0001 35C22.0001 35.92 21.1787 36.6666 20.1667 36.6666C19.1547 36.6666 18.3334 35.92 18.3334 35C18.3334 34.08 19.1547 33.3333 20.1667 33.3333Z" fill="black"/>
</svg>
