<svg width="55" height="50" viewBox="0 0 55 50" fill="none" xmlns="http://www.w3.org/2000/svg">
<path d="M27.4999 3.125C26.8446 3.12535 26.1969 3.25347 25.6006 3.50071C25.0044 3.74795 24.4734 4.10856 24.0434 4.55822C23.6135 5.00788 23.2946 5.53613 23.1083 6.10734C22.9221 6.67855 22.8727 7.27944 22.9636 7.86947L13.4478 12.8621C12.643 12.2907 11.6514 11.9799 10.6302 11.9792C9.41463 11.9792 8.24884 12.4182 7.3893 13.1996C6.52976 13.981 6.04688 15.0408 6.04688 16.1458C6.04688 17.2509 6.52976 18.3107 7.3893 19.0921C8.24884 19.8735 9.41463 20.3125 10.6302 20.3125C11.6509 20.3107 12.6417 19.9992 13.4456 19.4275L22.9658 24.4242C22.8256 25.3426 23.0264 26.2772 23.5363 27.0802C24.0463 27.8832 24.8362 28.5086 25.7812 28.8574V38.8489C25.388 38.9944 25.0189 39.1888 24.6846 39.4267L15.1665 34.4299C15.2571 33.8401 15.2074 33.2394 15.021 32.6684C14.8346 32.0975 14.5157 31.5695 14.0858 31.1201C13.6559 30.6706 13.125 30.3102 12.5289 30.0631C11.9328 29.816 11.2854 29.6879 10.6302 29.6875C9.41463 29.6875 8.24884 30.1265 7.3893 30.9079C6.52976 31.6893 6.04688 32.7491 6.04688 33.8542C6.04688 34.9592 6.52976 36.019 7.3893 36.8004C8.24884 37.5818 9.41463 38.0208 10.6302 38.0208C11.6509 38.019 12.6417 37.7076 13.4456 37.1358L22.9658 42.1326C22.8753 42.7223 22.9249 43.3228 23.1112 43.8936C23.2975 44.4644 23.6162 44.9923 24.0459 45.4417C24.4755 45.8911 25.0061 46.2515 25.602 46.4988C26.1978 46.746 26.845 46.8743 27.4999 46.875C28.1553 46.8746 28.8029 46.7465 29.3992 46.4993C29.9955 46.252 30.5265 45.8914 30.9564 45.4418C31.3864 44.9921 31.7052 44.4639 31.8915 43.8927C32.0778 43.3214 32.1271 42.7206 32.0363 42.1305L41.552 37.1379C42.3568 37.7093 43.3485 38.0201 44.3696 38.0208C45.5852 38.0208 46.751 37.5818 47.6105 36.8004C48.4701 36.019 48.953 34.9592 48.953 33.8542C48.953 32.7491 48.4701 31.6893 47.6105 30.9079C46.751 30.1265 45.5852 29.6875 44.3696 29.6875C43.7143 29.6879 43.0666 29.816 42.4703 30.0632C41.8741 30.3104 41.3431 30.6711 40.9131 31.1207C40.4832 31.5704 40.1643 32.0986 39.9781 32.6698C39.7918 33.2411 39.7424 33.8419 39.8333 34.432L30.3175 39.4246C29.9822 39.1881 29.6124 38.995 29.2187 38.8509V28.8595C30.1649 28.5108 30.9559 27.8849 31.4663 27.081C31.9768 26.2772 32.1773 25.3415 32.0363 24.4222L41.552 19.4295C42.3568 20.001 43.3485 20.3117 44.3696 20.3125C45.5852 20.3125 46.751 19.8735 47.6105 19.0921C48.4701 18.3107 48.953 17.2509 48.953 16.1458C48.953 15.0408 48.4701 13.981 47.6105 13.1996C46.751 12.4182 45.5852 11.9792 44.3696 11.9792C43.7143 11.9795 43.0666 12.1076 42.4703 12.3549C41.8741 12.6021 41.3431 12.9627 40.9131 13.4124C40.4832 13.862 40.1643 14.3903 39.9781 14.9615C39.7918 15.5327 39.7424 16.1336 39.8333 16.7236L30.3175 21.7163C29.5127 21.1449 28.5211 20.8341 27.4999 20.8333C26.4793 20.8351 25.4884 21.1466 24.6846 21.7183L15.1665 16.7216C15.2254 16.3389 15.2254 15.9507 15.1665 15.568L24.6823 10.5754C25.4871 11.1468 26.4787 11.4576 27.4999 11.4583C28.7155 11.4583 29.8813 11.0193 30.7408 10.2379C31.6004 9.45654 32.0833 8.39674 32.0833 7.29167C32.0833 6.1866 31.6004 5.12679 30.7408 4.34539C29.8813 3.56399 28.7155 3.125 27.4999 3.125Z" fill="black"/>
</svg>
