<svg width="50" height="42" viewBox="0 0 50 42" fill="none" xmlns="http://www.w3.org/2000/svg">
<path d="M6.66659 7C4.82492 7 3.33325 8.253 3.33325 9.8V32.2C3.33325 33.747 4.82492 35 6.66659 35H19.9999C21.8416 35 23.3333 36.253 23.3333 37.8V9.8C23.3333 8.253 21.8416 7 19.9999 7H6.66659ZM29.9999 7C28.1583 7 26.6666 8.253 26.6666 9.8V37.8C26.6666 36.253 28.1583 35 29.9999 35H43.3333C45.1749 35 46.6666 33.747 46.6666 32.2V9.8C46.6666 8.253 45.1749 7 43.3333 7H29.9999ZM8.33325 11.2H11.6666C12.5866 11.2 13.3333 11.8272 13.3333 12.6C13.3333 13.3728 12.5866 14 11.6666 14H8.33325C7.41325 14 6.66659 13.3728 6.66659 12.6C6.66659 11.8272 7.41325 11.2 8.33325 11.2ZM18.3333 11.2C19.2533 11.2 19.9999 11.8272 19.9999 12.6C19.9999 13.3728 19.2533 14 18.3333 14C17.4133 14 16.6666 13.3728 16.6666 12.6C16.6666 11.8272 17.4133 11.2 18.3333 11.2ZM31.6666 11.2H34.9999C35.9199 11.2 36.6666 11.8272 36.6666 12.6C36.6666 13.3728 35.9199 14 34.9999 14H31.6666C30.7466 14 29.9999 13.3728 29.9999 12.6C29.9999 11.8272 30.7466 11.2 31.6666 11.2ZM41.6666 11.2C42.5866 11.2 43.3333 11.8272 43.3333 12.6C43.3333 13.3728 42.5866 14 41.6666 14C40.7466 14 39.9999 13.3728 39.9999 12.6C39.9999 11.8272 40.7466 11.2 41.6666 11.2ZM8.33325 16.8H11.6666C12.5866 16.8 13.3333 17.4272 13.3333 18.2C13.3333 18.9728 12.5866 19.6 11.6666 19.6H8.33325C7.41325 19.6 6.66659 18.9728 6.66659 18.2C6.66659 17.4272 7.41325 16.8 8.33325 16.8ZM18.3333 16.8C19.2533 16.8 19.9999 17.4272 19.9999 18.2C19.9999 18.9728 19.2533 19.6 18.3333 19.6C17.4133 19.6 16.6666 18.9728 16.6666 18.2C16.6666 17.4272 17.4133 16.8 18.3333 16.8ZM31.6666 16.8H34.9999C35.9199 16.8 36.6666 17.4272 36.6666 18.2C36.6666 18.9728 35.9199 19.6 34.9999 19.6H31.6666C30.7466 19.6 29.9999 18.9728 29.9999 18.2C29.9999 17.4272 30.7466 16.8 31.6666 16.8ZM41.6666 16.8C42.5866 16.8 43.3333 17.4272 43.3333 18.2C43.3333 18.9728 42.5866 19.6 41.6666 19.6C40.7466 19.6 39.9999 18.9728 39.9999 18.2C39.9999 17.4272 40.7466 16.8 41.6666 16.8ZM8.33325 22.4H9.99992C10.9199 22.4 11.6666 23.0272 11.6666 23.8C11.6666 24.5728 10.9199 25.2 9.99992 25.2H8.33325C7.41325 25.2 6.66659 24.5728 6.66659 23.8C6.66659 23.0272 7.41325 22.4 8.33325 22.4ZM18.3333 22.4C19.2533 22.4 19.9999 23.0272 19.9999 23.8C19.9999 24.5728 19.2533 25.2 18.3333 25.2C17.4133 25.2 16.6666 24.5728 16.6666 23.8C16.6666 23.0272 17.4133 22.4 18.3333 22.4ZM31.6666 22.4H33.3333C34.2533 22.4 34.9999 23.0272 34.9999 23.8C34.9999 24.5728 34.2533 25.2 33.3333 25.2H31.6666C30.7466 25.2 29.9999 24.5728 29.9999 23.8C29.9999 23.0272 30.7466 22.4 31.6666 22.4ZM41.6666 22.4C42.5866 22.4 43.3333 23.0272 43.3333 23.8C43.3333 24.5728 42.5866 25.2 41.6666 25.2C40.7466 25.2 39.9999 24.5728 39.9999 23.8C39.9999 23.0272 40.7466 22.4 41.6666 22.4ZM8.33325 28H11.6666C12.5866 28 13.3333 28.6272 13.3333 29.4C13.3333 30.1728 12.5866 30.8 11.6666 30.8H8.33325C7.41325 30.8 6.66659 30.1728 6.66659 29.4C6.66659 28.6272 7.41325 28 8.33325 28ZM18.3333 28C19.2533 28 19.9999 28.6272 19.9999 29.4C19.9999 30.1728 19.2533 30.8 18.3333 30.8C17.4133 30.8 16.6666 30.1728 16.6666 29.4C16.6666 28.6272 17.4133 28 18.3333 28Z" fill="black"/>
</svg>
