<svg width="50" height="42" viewBox="0 0 50 42" fill="none" xmlns="http://www.w3.org/2000/svg">
<path d="M25.0409 3.31615C24.8203 3.31258 24.6005 3.33631 24.3911 3.3863L1.31505 8.91256C0.831091 9.02858 0.431085 9.27795 0.202994 9.60582C-0.0250972 9.9337 -0.0625973 10.3132 0.0987396 10.661C0.260077 11.0087 0.607041 11.2962 1.06333 11.4601C1.51963 11.6241 2.04789 11.6512 2.53195 11.5354L24.9995 6.15483L47.4671 11.5354C47.7069 11.5928 47.96 11.6158 48.212 11.6029C48.4641 11.5901 48.7102 11.5417 48.9362 11.4605C49.1623 11.3793 49.3638 11.267 49.5294 11.1298C49.695 10.9927 49.8213 10.8334 49.9013 10.6612C49.9812 10.4889 50.0131 10.3071 49.9952 10.126C49.9772 9.9449 49.9098 9.76811 49.7968 9.60573C49.6838 9.44335 49.5273 9.29856 49.3364 9.17963C49.1455 9.06069 48.9238 8.96994 48.684 8.91256L25.608 3.3863C25.4249 3.34261 25.2337 3.31896 25.0409 3.31615V3.31615ZM5.76951 12.9871C4.70801 12.9871 3.8465 13.606 3.8465 14.3687V35.0921C3.8465 35.8548 4.70801 36.4737 5.76951 36.4737H13.4615C14.523 36.4737 15.3845 35.8548 15.3845 35.0921V14.3687C15.3845 13.606 14.523 12.9871 13.4615 12.9871H5.76951ZM36.5376 14.3687C35.4761 14.3687 34.6146 14.9876 34.6146 15.7502V35.0921C34.6146 35.8548 35.4761 36.4737 36.5376 36.4737H44.2296C45.2911 36.4737 46.1526 35.8548 46.1526 35.0921V15.7502C46.1526 14.9876 45.2911 14.3687 44.2296 14.3687H36.5376ZM6.73101 17.1318H12.5C13.0308 17.1318 13.4615 17.4413 13.4615 17.8226C13.4615 18.2039 13.0308 18.5134 12.5 18.5134H6.73101C6.20026 18.5134 5.76951 18.2039 5.76951 17.8226C5.76951 17.4413 6.20026 17.1318 6.73101 17.1318ZM21.1535 17.1318C20.092 17.1318 19.2305 17.7507 19.2305 18.5134V35.0921C19.2305 35.8548 20.092 36.4737 21.1535 36.4737H28.8456C29.907 36.4737 30.7686 35.8548 30.7686 35.0921V18.5134C30.7686 17.7507 29.907 17.1318 28.8456 17.1318H21.1535ZM37.4991 18.5134H43.2681C43.7988 18.5134 44.2296 18.8228 44.2296 19.2041C44.2296 19.5854 43.7988 19.8949 43.2681 19.8949H37.4991C36.9683 19.8949 36.5376 19.5854 36.5376 19.2041C36.5376 18.8228 36.9683 18.5134 37.4991 18.5134ZM22.115 21.2765H27.884C28.4148 21.2765 28.8456 21.586 28.8456 21.9673C28.8456 22.3486 28.4148 22.658 27.884 22.658H22.115C21.5843 22.658 21.1535 22.3486 21.1535 21.9673C21.1535 21.586 21.5843 21.2765 22.115 21.2765ZM6.73101 28.1843H12.5C13.0308 28.1843 13.4615 28.4938 13.4615 28.8751C13.4615 29.2564 13.0308 29.5659 12.5 29.5659H6.73101C6.20026 29.5659 5.76951 29.2564 5.76951 28.8751C5.76951 28.4938 6.20026 28.1843 6.73101 28.1843ZM22.115 28.1843H27.884C28.4148 28.1843 28.8456 28.4938 28.8456 28.8751C28.8456 29.2564 28.4148 29.5659 27.884 29.5659H22.115C21.5843 29.5659 21.1535 29.2564 21.1535 28.8751C21.1535 28.4938 21.5843 28.1843 22.115 28.1843ZM37.4991 28.1843H43.2681C43.7988 28.1843 44.2296 28.4938 44.2296 28.8751C44.2296 29.2564 43.7988 29.5659 43.2681 29.5659H37.4991C36.9683 29.5659 36.5376 29.2564 36.5376 28.8751C36.5376 28.4938 36.9683 28.1843 37.4991 28.1843ZM6.73101 30.9474H12.5C13.0308 30.9474 13.4615 31.2569 13.4615 31.6382C13.4615 32.0195 13.0308 32.329 12.5 32.329H6.73101C6.20026 32.329 5.76951 32.0195 5.76951 31.6382C5.76951 31.2569 6.20026 30.9474 6.73101 30.9474ZM22.115 30.9474H27.884C28.4148 30.9474 28.8456 31.2569 28.8456 31.6382C28.8456 32.0195 28.4148 32.329 27.884 32.329H22.115C21.5843 32.329 21.1535 32.0195 21.1535 31.6382C21.1535 31.2569 21.5843 30.9474 22.115 30.9474ZM37.4991 30.9474H43.2681C43.7988 30.9474 44.2296 31.2569 44.2296 31.6382C44.2296 32.0195 43.7988 32.329 43.2681 32.329H37.4991C36.9683 32.329 36.5376 32.0195 36.5376 31.6382C36.5376 31.2569 36.9683 30.9474 37.4991 30.9474Z" fill="black"/>
</svg>
