<svg width="55" height="50" viewBox="0 0 55 50" fill="none" xmlns="http://www.w3.org/2000/svg">
<path d="M27.5449 3.9478C27.3023 3.94356 27.0605 3.97181 26.8302 4.03132L1.44655 10.6102C0.9142 10.7483 0.474193 11.0452 0.223293 11.4355C-0.0276069 11.8258 -0.068857 12.2777 0.108614 12.6916C0.286084 13.1056 0.667745 13.4478 1.16967 13.643C1.67159 13.8382 2.25268 13.8705 2.78515 13.7326L27.4995 7.32719L52.2138 13.7326C52.4775 13.801 52.756 13.8283 53.0333 13.813C53.3105 13.7977 53.5812 13.7401 53.8299 13.6435C54.0785 13.5468 54.3002 13.4131 54.4824 13.2498C54.6645 13.0865 54.8035 12.8969 54.8914 12.6919C54.9793 12.4869 55.0144 12.2704 54.9947 12.0548C54.975 11.8392 54.9008 11.6287 54.7765 11.4354C54.6521 11.2421 54.48 11.0697 54.27 10.9281C54.06 10.7866 53.8162 10.6785 53.5524 10.6102L28.1688 4.03132C27.9674 3.97931 27.7571 3.95116 27.5449 3.9478V3.9478ZM6.34646 15.4608C5.17881 15.4608 4.23115 16.1977 4.23115 17.1056V41.7764C4.23115 42.6842 5.17881 43.4211 6.34646 43.4211H14.8077C15.9753 43.4211 16.923 42.6842 16.923 41.7764V17.1056C16.923 16.1977 15.9753 15.4608 14.8077 15.4608H6.34646ZM40.1913 17.1056C39.0237 17.1056 38.076 17.8424 38.076 18.7503V41.7764C38.076 42.6842 39.0237 43.4211 40.1913 43.4211H48.6525C49.8202 43.4211 50.7678 42.6842 50.7678 41.7764V18.7503C50.7678 17.8424 49.8202 17.1056 48.6525 17.1056H40.1913ZM7.40411 20.395H13.75C14.3338 20.395 14.8077 20.7634 14.8077 21.2174C14.8077 21.6713 14.3338 22.0397 13.75 22.0397H7.40411C6.82029 22.0397 6.34646 21.6713 6.34646 21.2174C6.34646 20.7634 6.82029 20.395 7.40411 20.395ZM23.2689 20.395C22.1012 20.395 21.1536 21.1318 21.1536 22.0397V41.7764C21.1536 42.6842 22.1012 43.4211 23.2689 43.4211H31.7301C32.8978 43.4211 33.8454 42.6842 33.8454 41.7764V22.0397C33.8454 21.1318 32.8978 20.395 31.7301 20.395H23.2689ZM41.249 22.0397H47.5949C48.1787 22.0397 48.6525 22.4081 48.6525 22.8621C48.6525 23.316 48.1787 23.6844 47.5949 23.6844H41.249C40.6651 23.6844 40.1913 23.316 40.1913 22.8621C40.1913 22.4081 40.6651 22.0397 41.249 22.0397ZM24.3265 25.3292H30.6725C31.2563 25.3292 31.7301 25.6976 31.7301 26.1515C31.7301 26.6055 31.2563 26.9739 30.6725 26.9739H24.3265C23.7427 26.9739 23.2689 26.6055 23.2689 26.1515C23.2689 25.6976 23.7427 25.3292 24.3265 25.3292ZM7.40411 33.5528H13.75C14.3338 33.5528 14.8077 33.9212 14.8077 34.3751C14.8077 34.8291 14.3338 35.1975 13.75 35.1975H7.40411C6.82029 35.1975 6.34646 34.8291 6.34646 34.3751C6.34646 33.9212 6.82029 33.5528 7.40411 33.5528ZM24.3265 33.5528H30.6725C31.2563 33.5528 31.7301 33.9212 31.7301 34.3751C31.7301 34.8291 31.2563 35.1975 30.6725 35.1975H24.3265C23.7427 35.1975 23.2689 34.8291 23.2689 34.3751C23.2689 33.9212 23.7427 33.5528 24.3265 33.5528ZM41.249 33.5528H47.5949C48.1787 33.5528 48.6525 33.9212 48.6525 34.3751C48.6525 34.8291 48.1787 35.1975 47.5949 35.1975H41.249C40.6651 35.1975 40.1913 34.8291 40.1913 34.3751C40.1913 33.9212 40.6651 33.5528 41.249 33.5528ZM7.40411 36.8422H13.75C14.3338 36.8422 14.8077 37.2106 14.8077 37.6646C14.8077 38.1185 14.3338 38.4869 13.75 38.4869H7.40411C6.82029 38.4869 6.34646 38.1185 6.34646 37.6646C6.34646 37.2106 6.82029 36.8422 7.40411 36.8422ZM24.3265 36.8422H30.6725C31.2563 36.8422 31.7301 37.2106 31.7301 37.6646C31.7301 38.1185 31.2563 38.4869 30.6725 38.4869H24.3265C23.7427 38.4869 23.2689 38.1185 23.2689 37.6646C23.2689 37.2106 23.7427 36.8422 24.3265 36.8422ZM41.249 36.8422H47.5949C48.1787 36.8422 48.6525 37.2106 48.6525 37.6646C48.6525 38.1185 48.1787 38.4869 47.5949 38.4869H41.249C40.6651 38.4869 40.1913 38.1185 40.1913 37.6646C40.1913 37.2106 40.6651 36.8422 41.249 36.8422Z" fill="black"/>
</svg>
