<svg width="60" height="60" viewBox="0 0 60 60" fill="none" xmlns="http://www.w3.org/2000/svg">
<path d="M29.9486 2.50003C29.7328 2.50657 29.5197 2.55034 29.3187 2.62942L3.69373 12.6294C3.4553 12.712 3.23599 12.8419 3.04894 13.0113C2.86188 13.1806 2.71094 13.386 2.60514 13.6151C2.49935 13.8442 2.44088 14.0923 2.43323 14.3445C2.42559 14.5967 2.46893 14.8479 2.56066 15.083C2.65239 15.318 2.79062 15.5322 2.96707 15.7126C3.14352 15.8929 3.35456 16.0359 3.58756 16.1327C3.82055 16.2296 4.0707 16.2785 4.32303 16.2764C4.57536 16.2743 4.82467 16.2214 5.05604 16.1206L29.9999 6.38675L54.9437 16.1206C55.1751 16.2214 55.4244 16.2743 55.6767 16.2764C55.9291 16.2785 56.1792 16.2296 56.4122 16.1327C56.6452 16.0359 56.8563 15.8929 57.0327 15.7126C57.2092 15.5322 57.3474 15.318 57.4391 15.083C57.5308 14.8479 57.5742 14.5967 57.5665 14.3445C57.5589 14.0923 57.5004 13.8442 57.3946 13.6151C57.2888 13.386 57.1379 13.1806 56.9508 13.0113C56.7638 12.8419 56.5445 12.712 56.306 12.6294L30.681 2.62942C30.448 2.53782 30.199 2.49382 29.9486 2.50003V2.50003ZM11.2499 18.75C9.17864 18.75 7.49989 20.4288 7.49989 22.5V48.75C7.49989 50.8213 9.17864 52.5 11.2499 52.5H25.6932C26.5595 53.9888 28.1536 55 29.9999 55C31.8461 55 33.4403 53.9888 34.3065 52.5H48.7499C50.8211 52.5 52.4999 50.8213 52.4999 48.75V22.5C52.4999 20.4288 50.8211 18.75 48.7499 18.75H37.4999C34.3936 18.75 31.8749 21.2688 31.8749 24.375V48.125C31.8749 49.16 31.0349 50 29.9999 50C28.9649 50 28.1249 49.16 28.1249 48.125V24.375C28.1249 21.2688 25.6061 18.75 22.4999 18.75H11.2499Z" fill="#EF7F1A"/>
</svg>
