<svg width="55" height="50" viewBox="0 0 55 50" fill="none" xmlns="http://www.w3.org/2000/svg">
<path d="M41.823 5.20831C40.4335 5.20955 39.072 5.56412 37.8926 6.23197C36.7132 6.89981 35.7627 7.85429 35.1488 8.98749C34.5348 10.1207 34.2818 11.3874 34.4184 12.6445C34.5549 13.9016 35.0756 15.0989 35.9215 16.1011L29.5321 23.4375H20.4237C20.0368 21.9546 19.111 20.6338 17.7959 19.6886C16.4809 18.7434 14.8536 18.2292 13.1772 18.2291C11.2019 18.2291 9.30745 18.9425 7.91069 20.2123C6.51394 21.4821 5.72925 23.2042 5.72925 25C5.72925 26.7957 6.51394 28.5179 7.91069 29.7877C9.30745 31.0575 11.2019 31.7708 13.1772 31.7708C14.852 31.7689 16.4773 31.2539 17.7905 30.3088C19.1037 29.3638 20.0282 28.044 20.4147 26.5625H29.5321L35.9215 33.8989C35.0756 34.9011 34.5549 36.0983 34.4184 37.3554C34.2818 38.6125 34.5348 39.8793 35.1488 41.0125C35.7627 42.1457 36.7132 43.1001 37.8926 43.768C39.072 44.4358 40.4335 44.7904 41.823 44.7916C43.7983 44.7916 45.6927 44.0783 47.0895 42.8085C48.4862 41.5387 49.2709 39.8165 49.2709 38.0208C49.2709 36.2251 48.4862 34.5029 47.0895 33.2331C45.6927 31.9633 43.7983 31.25 41.823 31.25C40.7025 31.2525 39.5972 31.4847 38.5891 31.9295L32.5579 25L38.5869 18.0745C39.596 18.5182 40.7021 18.7491 41.823 18.75C43.7983 18.75 45.6927 18.0366 47.0895 16.7668C48.4862 15.4971 49.2709 13.7749 49.2709 11.9791C49.2709 10.1834 48.4862 8.46122 47.0895 7.19144C45.6927 5.92167 43.7983 5.20831 41.823 5.20831V5.20831Z" fill="black"/>
</svg>
