<svg width="42" height="39" viewBox="0 0 42 39" fill="none" xmlns="http://www.w3.org/2000/svg">
<path d="M21.0343 3.0793C20.849 3.07599 20.6644 3.09803 20.4885 3.14445L1.10464 8.27598C0.698116 8.38371 0.362111 8.61527 0.170515 8.91972C-0.0210817 9.22417 -0.0525817 9.5766 0.0829413 9.89949C0.218464 10.2224 0.509914 10.4893 0.8932 10.6416C1.27649 10.7938 1.72022 10.819 2.12684 10.7114L20.9996 5.71522L39.8724 10.7114C40.0738 10.7648 40.2864 10.7861 40.4981 10.7742C40.7099 10.7622 40.9166 10.7173 41.1064 10.6419C41.2963 10.5665 41.4656 10.4622 41.6047 10.3348C41.7438 10.2075 41.8499 10.0596 41.9171 9.89969C41.9842 9.73976 42.011 9.57089 41.9959 9.40273C41.9809 9.23457 41.9242 9.07041 41.8293 8.91964C41.7344 8.76886 41.6029 8.63441 41.4426 8.52397C41.2822 8.41353 41.096 8.32926 40.8946 8.27598L21.5107 3.14445C21.3569 3.10388 21.1963 3.08192 21.0343 3.0793V3.0793ZM4.84639 12.0595C3.95473 12.0595 3.23106 12.6342 3.23106 13.3424V32.5856C3.23106 33.2937 3.95473 33.8685 4.84639 33.8685H11.3077C12.1993 33.8685 12.923 33.2937 12.923 32.5856V13.3424C12.923 12.6342 12.1993 12.0595 11.3077 12.0595H4.84639ZM30.6916 13.3424C29.7999 13.3424 29.0762 13.9171 29.0762 14.6252V32.5856C29.0762 33.2937 29.7999 33.8685 30.6916 33.8685H37.1528C38.0445 33.8685 38.7682 33.2937 38.7682 32.5856V14.6252C38.7682 13.9171 38.0445 13.3424 37.1528 13.3424H30.6916ZM5.65405 15.9081H10.5C10.9458 15.9081 11.3077 16.1955 11.3077 16.5496C11.3077 16.9036 10.9458 17.191 10.5 17.191H5.65405C5.20822 17.191 4.84639 16.9036 4.84639 16.5496C4.84639 16.1955 5.20822 15.9081 5.65405 15.9081ZM17.769 15.9081C16.8773 15.9081 16.1536 16.4828 16.1536 17.191V32.5856C16.1536 33.2937 16.8773 33.8685 17.769 33.8685H24.2303C25.1219 33.8685 25.8456 33.2937 25.8456 32.5856V17.191C25.8456 16.4828 25.1219 15.9081 24.2303 15.9081H17.769ZM31.4992 17.191H36.3452C36.791 17.191 37.1528 17.4784 37.1528 17.8324C37.1528 18.1865 36.791 18.4739 36.3452 18.4739H31.4992C31.0534 18.4739 30.6916 18.1865 30.6916 17.8324C30.6916 17.4784 31.0534 17.191 31.4992 17.191ZM18.5766 19.7568H23.4226C23.8684 19.7568 24.2303 20.0441 24.2303 20.3982C24.2303 20.7523 23.8684 21.0396 23.4226 21.0396H18.5766C18.1308 21.0396 17.769 20.7523 17.769 20.3982C17.769 20.0441 18.1308 19.7568 18.5766 19.7568ZM5.65405 26.1712H10.5C10.9458 26.1712 11.3077 26.4585 11.3077 26.8126C11.3077 27.1667 10.9458 27.454 10.5 27.454H5.65405C5.20822 27.454 4.84639 27.1667 4.84639 26.8126C4.84639 26.4585 5.20822 26.1712 5.65405 26.1712ZM18.5766 26.1712H23.4226C23.8684 26.1712 24.2303 26.4585 24.2303 26.8126C24.2303 27.1667 23.8684 27.454 23.4226 27.454H18.5766C18.1308 27.454 17.769 27.1667 17.769 26.8126C17.769 26.4585 18.1308 26.1712 18.5766 26.1712ZM31.4992 26.1712H36.3452C36.791 26.1712 37.1528 26.4585 37.1528 26.8126C37.1528 27.1667 36.791 27.454 36.3452 27.454H31.4992C31.0534 27.454 30.6916 27.1667 30.6916 26.8126C30.6916 26.4585 31.0534 26.1712 31.4992 26.1712ZM5.65405 28.7369H10.5C10.9458 28.7369 11.3077 29.0243 11.3077 29.3784C11.3077 29.7324 10.9458 30.0198 10.5 30.0198H5.65405C5.20822 30.0198 4.84639 29.7324 4.84639 29.3784C4.84639 29.0243 5.20822 28.7369 5.65405 28.7369ZM18.5766 28.7369H23.4226C23.8684 28.7369 24.2303 29.0243 24.2303 29.3784C24.2303 29.7324 23.8684 30.0198 23.4226 30.0198H18.5766C18.1308 30.0198 17.769 29.7324 17.769 29.3784C17.769 29.0243 18.1308 28.7369 18.5766 28.7369ZM31.4992 28.7369H36.3452C36.791 28.7369 37.1528 29.0243 37.1528 29.3784C37.1528 29.7324 36.791 30.0198 36.3452 30.0198H31.4992C31.0534 30.0198 30.6916 29.7324 30.6916 29.3784C30.6916 29.0243 31.0534 28.7369 31.4992 28.7369Z" fill="black"/>
</svg>
