<?xml version="1.0" encoding="utf-8"?>
<svg xmlns="http://www.w3.org/2000/svg" viewBox="0 0 30 30" fill="#000000"><path d="M 15 1 A 1 1 0 0 0 14.503906 1.1328125 L 14.5 1.125 L 0.5 9.125 L 0.50195312 9.1347656 A 1 1 0 0 0 0 10 A 1 1 0 0 0 0.68554688 10.947266 L 0.68554688 10.949219 L 5 12.740234 L 5 10.777344 C 5 10.108344 5.333625 9.4842813 5.890625 9.1132812 C 6.214625 8.8972812 9.228 7 15 7 C 20.772 7 23.785375 8.8962812 24.109375 9.1132812 C 24.666375 9.4842812 25 10.108344 25 10.777344 L 25 12.740234 L 27 11.910156 L 27 22.277344 C 26.404366 22.623613 26 23.261054 26 24 C 26 25.105 28 28 28 28 C 28 28 30 25.105 30 24 C 30 23.261054 29.595634 22.623613 29 22.277344 L 29 11.080078 L 29.314453 10.949219 L 29.314453 10.947266 A 1 1 0 0 0 30 10 A 1 1 0 0 0 29.498047 9.1347656 L 29.5 9.125 L 15.5 1.125 L 15.496094 1.1328125 A 1 1 0 0 0 15 1 z M 15 9 C 9.667 9 7 10.777344 7 10.777344 L 7 13 L 7 14 C 5.9069372 14 5 14.906937 5 16 L 5 17 C 5 18.516667 5.6641977 19.596554 6.3417969 20.189453 C 6.7212524 20.521477 6.8575366 20.511021 7.1347656 20.626953 C 7.2504309 21.142836 7.5360224 22.231768 8.4179688 23.554688 C 9.5279779 25.219701 11.605535 26.93563 14.847656 26.990234 A 1.0001 1.0001 0 0 0 15 27 A 1.0001 1.0001 0 0 0 15.136719 26.990234 C 18.388094 26.941084 20.470184 25.222458 21.582031 23.554688 C 22.463978 22.231768 22.749569 21.142836 22.865234 20.626953 C 23.142463 20.511021 23.278748 20.521477 23.658203 20.189453 C 24.335802 19.596554 25 18.516667 25 17 L 25 16 C 25 14.906937 24.093063 14 23 14 L 23 13 L 23 10.777344 C 23 10.777344 20.333 9 15 9 z M 15 13.556641 C 17.639779 13.556641 19.621838 13.991639 20.955078 14.431641 C 20.983975 14.927168 21 15.449297 21 16 L 23 16 L 23 17 C 23 17.983333 22.664198 18.403446 22.341797 18.685547 C 22.019396 18.967648 21.757812 19.029297 21.757812 19.029297 L 21.121094 19.189453 L 21.013672 19.835938 C 21.013672 19.835938 20.789961 21.137325 19.917969 22.445312 C 19.045976 23.753302 17.666667 25 15 25 C 12.333333 25 10.954024 23.753301 10.082031 22.445312 C 9.2100392 21.137324 8.9863281 19.835937 8.9863281 19.835938 L 8.8789062 19.189453 L 8.2421875 19.029297 C 8.2421875 19.029297 7.9806039 18.967647 7.6582031 18.685547 C 7.3358023 18.403446 7 17.983333 7 17 L 7 16 L 9 16 C 9 15.360112 9.0867138 14.835415 9.2265625 14.378906 C 10.556546 13.957876 12.467865 13.556641 15 13.556641 z" fill="#000000"/></svg>
