<?xml version="1.0" encoding="utf-8"?>
<svg xmlns="http://www.w3.org/2000/svg" viewBox="0 0 30 30" fill="#000000"><path d="M 12 3 A 1.0001 1.0001 0 0 0 11 4 L 11 12 A 1.0001 1.0001 0 0 0 12 13 C 15.666667 13 18.445313 14.832031 18.445312 14.832031 A 1.0001 1.0001 0 0 0 18.447266 14.833984 A 1.0001 1.0001 0 0 0 18.505859 14.869141 A 1.0001 1.0001 0 0 0 18.542969 14.888672 A 1.0001 1.0001 0 0 0 18.558594 14.894531 A 1.0001 1.0001 0 0 0 18.638672 14.931641 A 1.0001 1.0001 0 0 0 18.732422 14.962891 A 1.0001 1.0001 0 0 0 18.748047 14.966797 A 1.0001 1.0001 0 0 0 18.8125 14.982422 A 1.0001 1.0001 0 0 0 18.816406 14.982422 A 1.0001 1.0001 0 0 0 18.90625 14.996094 A 1.0001 1.0001 0 0 0 18.914062 14.996094 A 1.0001 1.0001 0 0 0 18.994141 15 A 1.0001 1.0001 0 0 0 19.029297 15 A 1.0001 1.0001 0 0 0 19.082031 14.996094 A 1.0001 1.0001 0 0 0 19.111328 14.994141 A 1.0001 1.0001 0 0 0 19.128906 14.992188 A 1.0001 1.0001 0 0 0 19.210938 14.976562 A 1.0001 1.0001 0 0 0 19.289062 14.955078 A 1.0001 1.0001 0 0 0 19.306641 14.951172 A 1.0001 1.0001 0 0 0 19.324219 14.945312 A 1.0001 1.0001 0 0 0 19.349609 14.935547 A 1.0001 1.0001 0 0 0 19.416016 14.908203 A 1.0001 1.0001 0 0 0 19.490234 14.871094 A 1.0001 1.0001 0 0 0 19.554688 14.832031 C 19.554688 14.832031 22.333333 13 26 13 A 1.0001 1.0001 0 0 0 27 12 L 27 4 A 1.0001 1.0001 0 0 0 26 3 C 22.719896 3 20.090995 4.2360134 19 4.8398438 C 17.909006 4.2360134 15.280104 3 12 3 z M 13 5.1132812 C 15.715962 5.3661436 17.498038 6.3078051 18 6.6113281 L 18 12.384766 C 16.859818 11.82884 15.297174 11.296918 13 11.113281 L 13 5.1132812 z M 25 5.1132812 L 25 11.113281 C 22.702826 11.296918 21.140182 11.82884 20 12.384766 L 20 6.6113281 C 20.501962 6.3078051 22.284038 5.3661437 25 5.1132812 z M 8 15 A 3 3 0 0 0 6.8828125 15.216797 L 2 17 L 2 25 L 6.2207031 23.166016 C 6.7187031 22.950016 7.2821563 22.942438 7.7851562 23.148438 L 16.849609 26.851562 C 16.849609 26.851562 16.853494 26.851563 16.853516 26.851562 A 1.5 1.5 0 0 0 17.5 27 A 1.5 1.5 0 0 0 18.238281 26.802734 C 18.238413 26.802691 18.244057 26.802776 18.244141 26.802734 L 27.230469 21.810547 L 27.228516 21.808594 A 1.5 1.5 0 0 0 28 20.5 A 1.5 1.5 0 0 0 26.5 19 A 1.5 1.5 0 0 0 25.863281 19.144531 L 25.863281 19.142578 L 19 22 L 17.5 22 A 1.5 1.5 0 0 0 19 20.5 A 1.5 1.5 0 0 0 17.964844 19.074219 L 17.964844 19.072266 L 9.2714844 15.28125 L 9.2597656 15.28125 A 3 3 0 0 0 8 15 z" fill="#000000"/></svg>
