<?xml version="1.0" encoding="utf-8"?>
<svg xmlns="http://www.w3.org/2000/svg" viewBox="0 0 30 30" fill="#000000"><path d="M 4 5 C 2.895 5 2 5.895 2 7 L 2 23 C 2 24.105 2.895 25 4 25 L 12 25 C 13.105 25 14 25.895 14 27 L 14 7 C 14 5.895 13.105 5 12 5 L 4 5 z M 18 5 C 16.895 5 16 5.895 16 7 L 16 27 C 16 25.895 16.895 25 18 25 L 26 25 C 27.105 25 28 24.105 28 23 L 28 7 C 28 5.895 27.105 5 26 5 L 18 5 z M 5 8 L 7 8 C 7.552 8 8 8.448 8 9 C 8 9.552 7.552 10 7 10 L 5 10 C 4.448 10 4 9.552 4 9 C 4 8.448 4.448 8 5 8 z M 11 8 C 11.552 8 12 8.448 12 9 C 12 9.552 11.552 10 11 10 C 10.448 10 10 9.552 10 9 C 10 8.448 10.448 8 11 8 z M 19 8 L 21 8 C 21.552 8 22 8.448 22 9 C 22 9.552 21.552 10 21 10 L 19 10 C 18.448 10 18 9.552 18 9 C 18 8.448 18.448 8 19 8 z M 25 8 C 25.552 8 26 8.448 26 9 C 26 9.552 25.552 10 25 10 C 24.448 10 24 9.552 24 9 C 24 8.448 24.448 8 25 8 z M 5 12 L 7 12 C 7.552 12 8 12.448 8 13 C 8 13.552 7.552 14 7 14 L 5 14 C 4.448 14 4 13.552 4 13 C 4 12.448 4.448 12 5 12 z M 11 12 C 11.552 12 12 12.448 12 13 C 12 13.552 11.552 14 11 14 C 10.448 14 10 13.552 10 13 C 10 12.448 10.448 12 11 12 z M 19 12 L 21 12 C 21.552 12 22 12.448 22 13 C 22 13.552 21.552 14 21 14 L 19 14 C 18.448 14 18 13.552 18 13 C 18 12.448 18.448 12 19 12 z M 25 12 C 25.552 12 26 12.448 26 13 C 26 13.552 25.552 14 25 14 C 24.448 14 24 13.552 24 13 C 24 12.448 24.448 12 25 12 z M 5 16 L 6 16 C 6.552 16 7 16.448 7 17 C 7 17.552 6.552 18 6 18 L 5 18 C 4.448 18 4 17.552 4 17 C 4 16.448 4.448 16 5 16 z M 11 16 C 11.552 16 12 16.448 12 17 C 12 17.552 11.552 18 11 18 C 10.448 18 10 17.552 10 17 C 10 16.448 10.448 16 11 16 z M 19 16 L 20 16 C 20.552 16 21 16.448 21 17 C 21 17.552 20.552 18 20 18 L 19 18 C 18.448 18 18 17.552 18 17 C 18 16.448 18.448 16 19 16 z M 25 16 C 25.552 16 26 16.448 26 17 C 26 17.552 25.552 18 25 18 C 24.448 18 24 17.552 24 17 C 24 16.448 24.448 16 25 16 z M 5 20 L 7 20 C 7.552 20 8 20.448 8 21 C 8 21.552 7.552 22 7 22 L 5 22 C 4.448 22 4 21.552 4 21 C 4 20.448 4.448 20 5 20 z M 11 20 C 11.552 20 12 20.448 12 21 C 12 21.552 11.552 22 11 22 C 10.448 22 10 21.552 10 21 C 10 20.448 10.448 20 11 20 z" fill="#000000"/></svg>
