<?xml version="1.0" encoding="utf-8"?>
<svg xmlns="http://www.w3.org/2000/svg" viewBox="0 0 30 30" fill="#000000"><path d="M 7 3 A 3 3 0 0 0 7 9 A 3 3 0 0 0 7 3 z M 12 4 L 12 6 L 25 6 L 25 17 L 21 17 L 21 16 L 17 16 L 17 17 L 14 17 L 12 17 L 12 17.832031 A 1.0001 1.0001 0 0 0 12 18.158203 L 12 19 L 14 19 L 27 19 A 1.0001 1.0001 0 1 0 27 17 L 27 5 A 1.0001 1.0001 0 0 0 26 4 L 12 4 z M 6 11 C 4.895 11 4 11.895 4 13 L 4 25.966797 C 4 26.536797 4.4632031 27 5.0332031 27 C 5.5772031 27 6.0284531 26.577156 6.0644531 26.035156 L 6.5019531 19.466797 C 6.5199531 19.204797 6.737 19 7 19 C 7.263 19 7.4800469 19.203844 7.4980469 19.464844 L 7.9355469 26.035156 C 7.9715469 26.578156 8.4227969 27 8.9667969 27 C 9.5367969 27 10 26.536797 10 25.966797 L 10 14 C 10 13.448 10.448 13 11 13 L 16 13 A 1.0001 1.0001 0 1 0 16 11 L 12 11 L 6 11 z" fill="#000000"/></svg>
