<?xml version="1.0" encoding="utf-8"?>
<svg xmlns="http://www.w3.org/2000/svg" viewBox="0 0 30 30" fill="#000000"><path d="M 4 7 C 2.8112103 7 1.7674858 7.6530649 1.078125 8.5722656 C 0.38876416 9.4914663 0 10.692844 0 12 C 0 13.307156 0.38876416 14.508534 1.078125 15.427734 C 1.7674858 16.346935 2.8112103 17 4 17 L 11 17 L 11 28 L 14 25 L 17 28 L 17 17 L 19 17 L 19 23 L 23 27 L 23 23 L 27 23 L 21 17 L 26 17 A 1.0001 1.0001 0 0 0 26.138672 16.990234 C 27.269193 16.941312 28.25969 16.310648 28.921875 15.427734 C 29.611259 14.508555 30 13.307235 30 12 C 30 10.692765 29.611259 9.4914447 28.921875 8.5722656 C 28.265816 7.6975204 27.287377 7.0709472 26.169922 7.0117188 A 1.0001 1.0001 0 0 0 26 7 L 4 7 z M 4 9 L 8.8203125 9 C 8.3124804 9.83837 8 10.869706 8 12 C 8 13.130294 8.3124804 14.16163 8.8203125 15 L 4 15 C 3.5317897 15 3.0741235 14.757065 2.6777344 14.228516 C 2.2813452 13.699966 2 12.901844 2 12 C 2 11.098156 2.2813452 10.300034 2.6777344 9.7714844 C 3.0741235 9.2429351 3.5317897 9 4 9 z M 14.820312 9 L 22.8125 9 C 22.29866 9.8529547 22 10.881687 22 12 C 22 13.118313 22.29866 14.147045 22.8125 15 L 19 15 L 14.820312 15 C 14.31248 14.16163 14 13.130294 14 12 C 14 10.869706 14.31248 9.83837 14.820312 9 z M 26 9 C 26.468134 9 26.925863 9.2429482 27.322266 9.7714844 C 27.718668 10.300021 28 11.098096 28 12 C 28 12.901904 27.718668 13.699979 27.322266 14.228516 C 26.925863 14.757052 26.468134 15 26 15 C 25.531866 15 25.074137 14.757052 24.677734 14.228516 C 24.281332 13.699979 24 12.901904 24 12 C 24 11.098096 24.281332 10.300021 24.677734 9.7714844 C 25.074137 9.2429482 25.531866 9 26 9 z" fill="#000000"/></svg>
