<?xml version="1.0" encoding="utf-8"?>
<svg xmlns="http://www.w3.org/2000/svg" viewBox="0 0 30 30" fill="#000000"><path d="M 15.021484 2 A 1.0001 1.0001 0 0 0 14.683594 2.0507812 L 2.6835938 6.0507812 A 1.0005645 1.0005645 0 0 0 3.3164062 7.9492188 L 15 4.0546875 L 26.683594 7.9492188 A 1.0005644 1.0005644 0 1 0 27.316406 6.0507812 L 15.316406 2.0507812 A 1.0001 1.0001 0 0 0 15.021484 2 z M 5 9 C 4.448 9 4 9.448 4 10 L 4 25 C 4 25.552 4.448 26 5 26 L 9 26 C 9.552 26 10 25.552 10 25 L 10 10 C 10 9.448 9.552 9 9 9 L 5 9 z M 21 10 C 20.448 10 20 10.448 20 11 L 20 25 C 20 25.552 20.448 26 21 26 L 25 26 C 25.552 26 26 25.552 26 25 L 26 11 C 26 10.448 25.552 10 25 10 L 21 10 z M 5.5 12 L 8.5 12 C 8.776 12 9 12.224 9 12.5 C 9 12.776 8.776 13 8.5 13 L 5.5 13 C 5.224 13 5 12.776 5 12.5 C 5 12.224 5.224 12 5.5 12 z M 13 12 C 12.448 12 12 12.448 12 13 L 12 25 C 12 25.552 12.448 26 13 26 L 17 26 C 17.552 26 18 25.552 18 25 L 18 13 C 18 12.448 17.552 12 17 12 L 13 12 z M 21.5 13 L 24.5 13 C 24.776 13 25 13.224 25 13.5 C 25 13.776 24.776 14 24.5 14 L 21.5 14 C 21.224 14 21 13.776 21 13.5 C 21 13.224 21.224 13 21.5 13 z M 13.5 15 L 16.5 15 C 16.776 15 17 15.224 17 15.5 C 17 15.776 16.776 16 16.5 16 L 13.5 16 C 13.224 16 13 15.776 13 15.5 C 13 15.224 13.224 15 13.5 15 z M 5.5 20 L 8.5 20 C 8.776 20 9 20.224 9 20.5 C 9 20.776 8.776 21 8.5 21 L 5.5 21 C 5.224 21 5 20.776 5 20.5 C 5 20.224 5.224 20 5.5 20 z M 13.5 20 L 16.5 20 C 16.776 20 17 20.224 17 20.5 C 17 20.776 16.776 21 16.5 21 L 13.5 21 C 13.224 21 13 20.776 13 20.5 C 13 20.224 13.224 20 13.5 20 z M 21.5 20 L 24.5 20 C 24.776 20 25 20.224 25 20.5 C 25 20.776 24.776 21 24.5 21 L 21.5 21 C 21.224 21 21 20.776 21 20.5 C 21 20.224 21.224 20 21.5 20 z M 5.5 22 L 8.5 22 C 8.776 22 9 22.224 9 22.5 C 9 22.776 8.776 23 8.5 23 L 5.5 23 C 5.224 23 5 22.776 5 22.5 C 5 22.224 5.224 22 5.5 22 z M 13.5 22 L 16.5 22 C 16.776 22 17 22.224 17 22.5 C 17 22.776 16.776 23 16.5 23 L 13.5 23 C 13.224 23 13 22.776 13 22.5 C 13 22.224 13.224 22 13.5 22 z M 21.5 22 L 24.5 22 C 24.776 22 25 22.224 25 22.5 C 25 22.776 24.776 23 24.5 23 L 21.5 23 C 21.224 23 21 22.776 21 22.5 C 21 22.224 21.224 22 21.5 22 z" fill="#000000"/></svg>
