<?xml version="1.0" encoding="utf-8"?>
<svg xmlns="http://www.w3.org/2000/svg" viewBox="0 0 30 30" fill="#000000"><path d="M26,5H4C2.895,5,2,5.895,2,7v16c0,1.105,0.895,2,2,2h22c1.105,0,2-0.895,2-2V7C28,5.895,27.105,5,26,5z M10,13.595 l4.224,1.131c0.259,0.068,0.518,0.102,0.776,0.102s0.517-0.034,0.77-0.101L20,13.595V16c0,0-2,1-5,1s-5-1-5-1V13.595z M22.087,10.966l-6.829,1.828c-0.085,0.022-0.172,0.034-0.259,0.034s-0.174-0.012-0.259-0.034l-6.829-1.828 C7.476,10.849,7.171,10.453,7.171,10s0.304-0.849,0.741-0.966l6.829-1.828C14.826,7.184,14.913,7.172,15,7.172 s0.174,0.011,0.259,0.034l6.829,1.828c0.437,0.117,0.741,0.513,0.741,0.966S22.524,10.849,22.087,10.966z M11,23H7v-3h4V23z M17,23 h-4v-3h4V23z M23,23h-4v-3h4V23z" fill="#000000"/></svg>
